<svg xmlns="http://www.w3.org/2000/svg" width="47.761" height="43.722" viewBox="0 0 47.761 43.722">
  <path id="logo-Shape" d="M44.13,7.8a9.611,9.611,0,0,1-8.4,1.7A9.5,9.5,0,0,1,29.915,5.04L23.937-5.272,17.959,5.04c-2.392,4.144-8.5,5.778-13.092,3.49A9.587,9.587,0,0,1,1.382-4.534l14.251-24.59A9.456,9.456,0,0,1,23.907-33.9h0a9.5,9.5,0,0,1,8.332,4.772L45.925-5.511A10.725,10.725,0,0,1,47.865.246,9.45,9.45,0,0,1,44.13,7.8ZM9.683-9.33h11.9L15.661-19.553a9.524,9.524,0,0,1-.951-2.288L7.283-9.023a9.491,9.491,0,0,1,2.4-.307ZM21.326-6.466H9.683A6.673,6.673,0,0,0,4.938-4.493,6.664,6.664,0,0,0,2.97.246,6.6,6.6,0,0,0,8.016,6.711a7.011,7.011,0,0,0,1.814.244,6.466,6.466,0,0,0,5.657-3.341ZM30.4-26.077a6.547,6.547,0,0,0-6.473-4.89H23.9a6.5,6.5,0,0,0-6.423,4.89,6.664,6.664,0,0,0,.658,5.091l5.8,10.015,5.8-10.015a6.659,6.659,0,0,0,.658-5.091ZM43.437-3.746a6.641,6.641,0,0,0-5.148-2.72H26.548L32.387,3.613a6.654,6.654,0,0,0,4.08,3.116,6.687,6.687,0,0,0,5.055-.637,6.64,6.64,0,0,0,3.155-4.1,6.591,6.591,0,0,0-1.241-5.735ZM40.575-9.053,33.164-21.841a9.525,9.525,0,0,1-.951,2.288L26.288-9.33h12a9.521,9.521,0,0,1,2.286.279Z" transform="translate(-0.103 33.897)" fill="#fff"/>
</svg>
